<svg version="1.1" id="Capa_1" xmlns="http://www.w3.org/2000/svg" xmlns:xlink="http://www.w3.org/1999/xlink" x="0" y="0" viewBox="0 0 500 500" xml:space="preserve"><style>.st0{display:none}.st1{display:inline;fill:#2b234f}.st4{opacity:.15;fill:#a8bbdf}.st8{display:inline;fill:#1e1736}.st11{display:none;opacity:.26;fill:#2b234f}.st12{fill:#b4efe8}.st13{fill:#d3fdf9}.st17{fill:#1e1736}.st24,.st27,.st28{display:inline;fill:#d2fdf9}.st27,.st28{fill:#8e518e}.st28{fill:#bf6dbf}</style><switch><g><g id="OGNSZb.tif" class="st0"><image width="447" height="532" id="Layer_0_4_" xlink:href="98F163B56308A982.png" transform="translate(95 58) scale(.7811)" display="inline" overflow="visible"/></g><g id="Martelo" class="st0"><path class="st1" d="M221 117s-17-23-4-29 18 0 18 0l5 14-19 15"/><path d="M337 153c-1.2 4.1-15.5 5.7-31.7 6.2-23.1.6-50.4-1.1-50.4-1.1v29.2S238 193 235 196s-24-17-24-17l-27 50c-72-55-44-134-44-134l75.2 18.9L226 95l24 13c43-26 68-31 68-31 2 1.5 3.8 3.1 5.5 4.7 31.8 29.8 16.3 61.8 13.5 71.3z" fill="#535597"/><path class="st4" d="M221 117l-70.6 74.7c-3.9-6.7-6.9-13.5-9.2-20.1l52.7-63 21.3 5.4.7-1.2 5.1 4.2zM250 108l-88.2 99.9c-1.7-2-3.2-4-4.7-6l82.6-99.5.3-.4 10 6z"/><path d="M144 105s-23 66 41 120l1.5-.6-2.5 4.6c-72-55-44-134-44-134l75.2 18.9L226 95l24 13c43-26 68-31 68-31 1.1.9 2.1 1.7 3.1 2.6L231 122l-87-17z" fill="#a8bbdf"/><path class="st1" d="M259.7 174s44.1 224.9 93.3 234.4c0 0-8.2 14.6-20.5 14.6s-30.8-5.2-30.8-12.6c0-7.3-74.8-187.3-70.7-223.9l28.7-12.5z"/><path d="M353 408.3s-3.6 6.4-9.6 10.8C287.5 388.2 254 182 254 182l6.7-3.3C267.3 211 308 399.8 353 408.3z" fill="#181231"/><path d="M224.2 197.3c5.1-18.3 40.2-27.3 40.2-27.3s-43.5 39.4-40.2 27.3z" fill="#43468e"/><path class="st8" d="M245 100s-28 88-23 96 34-88 32-91-9-5-9-5z"/><path class="st8" d="M267.4 181.6s-45.8 7.4-48.3 11.4c-2.5 4.1 47.2-4.7 48.1-6.3.8-1.5.2-5.1.2-5.1z"/><path class="st1" d="M261.4 182.2C227.6 172.9 211 108 211 108s72.8 80.4 50.4 74.2z"/><path d="M337 153c-1.2 4.1-15.5 5.7-31.7 6.2 24.7-25.5 21.5-60.7 18.2-77.5 31.8 29.8 16.3 61.8 13.5 71.3z" opacity=".4" fill="#2b234f"/></g><g id="VLwKLD.tif" class="st0"><image width="320" height="477" id="Layer_0_8_" xlink:href="98F163B56308A986.png" transform="translate(131 72.116) scale(.7437)" display="inline" overflow="visible"/></g><path class="st11" d="M248 220v194.9c-4.9-.4-27-1.9-42-1.9-34 0-63-48.9-63-87.5 0-58.1 47-105.2 105-105.5zM248 220v194.9c4.9-.4 27-1.9 42-1.9 34 0 63-48.9 63-87.5 0-58.1-47-105.2-105-105.5z"/><path class="st12" d="M174.4 291.4c9.8 9.8 9.8 25.6 0 35.4-9.8 9.8-25.6 9.8-35.4 0-9.8-9.8-24.6-40.4-14.8-50.2 9.8-9.8 40.4 5 50.2 14.8z"/><path class="st13" d="M324.7 291.4c-9.8 9.8-9.8 25.6 0 35.4 9.8 9.8 25.6 9.8 35.4 0 9.8-9.8 24.6-40.4 14.8-50.2-9.7-9.8-40.4 5-50.2 14.8z"/><path d="M326.3 456.6H172.8c-17.9 0-32.4-14.5-32.4-32.4v-18.5c0-28.7 23.2-51.9 51.9-51.9h114.5c28.7 0 51.9 23.2 51.9 51.9v18.5c0 17.9-14.5 32.4-32.4 32.4z" fill="#b6eb94"/><path d="M280.7 409.4v-55.6h-88.4c-28.7 0-51.9 23.2-51.9 51.9v18.5c0 17.9 14.5 32.4 32.4 32.4h67.4c35.5-16.1 40.5-47.2 40.5-47.2z" opacity=".15" fill="#367db8"/><path d="M268.9 379.4h-38.7c-40.8 0-73.9-33.1-73.9-73.9v-54.7c0-51.5 41.8-93.3 93.3-93.3s93.3 41.8 93.3 93.3v54.7c-.1 40.8-33.2 73.9-74 73.9z" fill="#eafefc"/><path class="st13" d="M199.9 262.1c-7.3-61.8 52-94.6 69-102.7-6.2-1.3-12.7-2-19.3-2-51.5 0-93.3 41.8-93.3 93.3v54.7c0 39 30.2 71 68.6 73.7-31.7-17.4-18.2-59.1-25-117z"/><path class="st17" d="M292.9 316.6c-2.9 0-5.3-2.4-5.3-5.3v-8.7c0-2.9 2.4-5.3 5.3-5.3s5.3 2.4 5.3 5.3v8.7c-.1 2.9-2.4 5.3-5.3 5.3zM206.3 316.6c-2.9 0-5.3-2.4-5.3-5.3v-8.7c0-2.9 2.4-5.3 5.3-5.3s5.3 2.4 5.3 5.3v8.7c-.1 2.9-2.4 5.3-5.3 5.3z"/><path d="M329.7 311.1c-21.9 25.4-54.9 22.6-54.9 22.6h-50.4s-33 2.8-54.9-22.6c-5.4-6.2-15.6-2.6-15.8 5.7-.4 19.5 1.3 44.2 9.9 59.6 15.9 28.5 26.1 21.9 37.4 16.4.4.5 12.9 24.3 48.5 24.3s48.2-23.7 48.5-24.3c11.3 5.5 21.6 12.1 37.4-16.4 8.6-15.4 10.3-40.2 9.9-59.6 0-8.3-10.3-11.9-15.6-5.7z" fill="#2b234f"/><path class="st17" d="M227 395.2c-8.5-13.6-2-31.7 13.2-36.8 17.9-6.1 28.5-16.8 28.5-16.8v-7.9h-44.3s-33 2.8-54.9-22.6c-5.4-6.2-15.6-2.6-15.8 5.7-.4 19.5 1.3 44.2 9.9 59.6 15.9 28.5 26.1 21.9 37.4 16.4.4.5 12.9 24.3 48.5 24.3-10.5-6.2-17.7-14.1-22.5-21.9z"/><path class="st12" d="M270.6 321.9c-5.3-8.1-13.6-6-18-4-1.9.8-4.1.8-6 0-4.4-2-12.7-4.1-18 4-2.7 4.2-5.8 6.4-8.7 7.5-3.5 1.4-3.9 6.1-.7 8 5.8 3.5 14.2 6.3 24.9 3.5 3.6-.9 7.5-.9 11.1 0 10.7 2.7 19.1-.1 24.9-3.5 3.2-1.9 2.8-6.6-.7-8-3-1.2-6.1-3.4-8.8-7.5z"/><path class="st17" d="M199.9 262s-8.6 27.1-44.8 29.9c-5.8.4-9.8-5.8-6.9-10.9 3.7-6.6 7.4-16.2 8.1-28.5l43.6 9.5zM299.2 262s8.6 27.1 44.8 29.9c5.8.4 9.8-5.8 6.9-10.9-3.7-6.6-7.4-16.2-8.1-28.5l-43.6 9.5z"/><path d="M156.3 252.5s44.7 15.9 93.3 15.9 93.3-15.9 93.3-15.9 0-81.3 8.4-99.8c5.1-11.3 11.2-18.9 17.2-24.1 5.9-5.1 3-14.7-4.7-15.7-37.7-4.8-102.3-9.5-148.3 6.6-10.7 3.7-20.2 10.1-27.8 18.6-15.9 17.9-39.5 55.1-31.4 114.4z" fill="#5760a6"/><path d="M220.3 198.4c-13.3-41.5 34.1-87.1 34.7-87.6-13.9 1.7-27.4 4.5-39.5 8.8-10.7 3.7-20.2 10.1-27.8 18.6-15.9 17.8-39.5 55.1-31.4 114.3 0 0 44.7 15.9 93.3 15.9 18.1 0 35.7-2.2 50.6-5-22.7-34.5-68.9-30.7-79.9-65z" fill="#4f5296"/><g class="st0"><path d="M196.3 50.9l15.3 64h71.7l15.3-64c1.8-7.6-3.9-14.9-11.7-14.9H208c-7.8 0-13.5 7.3-11.7 14.9z" fill="#5962a6"/><path d="M286.9 36h-22.5c7.8 0 13.6 7.3 11.7 14.9l-15.3 64h22.5l15.3-64c1.8-7.6-3.9-14.9-11.7-14.9z" fill="#4f5196"/><path d="M408.3 374.8c-3.1-27.6-64.9-85.1-94.9-111.5-10.2-9-16-21.9-16-35.4v-56.7h4.1c15.5 0 28.1-12.6 28.1-28.1S317 115 301.5 115h-108c-15.5 0-28.1 12.6-28.1 28.1s12.6 28.1 28.1 28.1h4.1v56.7c0 13.6-5.8 26.5-16 35.4-30 26.4-91.8 83.9-94.9 111.5C82.1 415.1 141.5 506 182 506h130.9c40.5 0 99.9-90.9 95.4-131.2z" fill="#e9fefc"/><path class="st24" d="M408.3 374.8c-3.1-27.6-64.9-85.1-94.9-111.5-10.2-9-16-21.9-16-35.4v-56.7h4.1c15.5 0 28.1-12.6 28.1-28.1S317 115 301.5 115H280c15.5 0 28.1 12.6 28.1 28.1s-12.6 28.1-28.1 28.1h-4.1v56.7c0 13.6 5.8 26.5 16 35.4 30 26.4 91.8 83.9 94.9 111.5C391.4 415.1 332 506 291.4 506h21.4c40.6 0 100-90.9 95.5-131.2z"/><path class="st24" d="M247.4 171.1c-3.8 0-6.9 3.1-6.9 6.9 0 3.8 3.1 6.9 6.9 6.9h49.9v-13.8h-49.9z"/><path d="M382.9 377.8c-.2-1-3.2-12.3-31.9-43.1-2.7-2.9-5.4-5.7-8.2-8.6 1.2 9 .9 18.2-4.8 24.8-6.8 7.8-18.6 8.7-28.9 8.1-34.8-1.9-68.8-10.9-102.7-19.1-22.1-5.4-53.6-13.8-67.2-.1-25.5 25.7-27 37-27.2 37.9-.5 5.3 1.7 17.4 9.7 34.5 7.6 16.2 18.7 33 30.3 46 16.3 18.2 27.2 22.2 30 22.2h130.9c2.8 0 13.8-4 30-22.2 11.6-13 22.6-29.8 30.3-46 8-17 10.2-29.2 9.7-34.4z" fill="#a559a1"/><path d="M382.9 377.8c-.2-1-3.2-12.3-31.9-43.1-2.7-2.9-5.4-5.7-8.2-8.6 1.1 8.2 1 16.6-3.4 23 16.8 20 18.9 27.8 19 28.6.5 5.3-1.7 17.4-9.7 34.5-7.6 16.2-18.7 33-30.3 46-16.3 18.2-27.2 22.2-30 22.2h24.5c2.8 0 13.8-4 30-22.2 11.6-13 22.6-29.8 30.3-46 8-17 10.2-29.2 9.7-34.4z" opacity=".2" fill="#5760a6"/><path class="st27" d="M309 359.1c10.4.6 22.1-.3 28.9-8.1 5.8-6.6 6.1-15.8 4.8-24.8-7.5-7.5-36.4-35.3-119.8 17.9 28.5 6.8 57 13.4 86.1 15zM216.3 383.4c0 6.9-5.6 12.4-12.4 12.4s-12.5-5.6-12.5-12.4c0-6.9 5.6-12.5 12.5-12.5s12.4 5.6 12.4 12.5z"/><path class="st28" d="M283.3 320c0 4.2-3.4 7.6-7.6 7.6s-7.6-3.4-7.6-7.6c0-4.2 3.4-7.6 7.6-7.6s7.6 3.4 7.6 7.6zM236.7 274.2c0 3.7-3 6.6-6.6 6.6s-6.6-3-6.6-6.6c0-3.7 3-6.6 6.6-6.6s6.6 2.9 6.6 6.6z"/></g></g></switch></svg>
