<svg version="1.1" id="Capa_1" xmlns="http://www.w3.org/2000/svg" xmlns:xlink="http://www.w3.org/1999/xlink" x="0" y="0" viewBox="0 0 284 366" xml:space="preserve"><style>.st0{display:none}.st1{display:inline;fill:#2b234f}.st4{opacity:.15;fill:#a8bbdf}.st8{display:inline;fill:#1e1736}.st11{display:none;opacity:.26;fill:#2b234f}.st12{fill:#b4efe8}.st13{fill:#d3fdf9}.st17{fill:#1e1736}.st24,.st27,.st28{display:inline;fill:#d2fdf9}.st27,.st28{fill:#8e518e}.st28{fill:#bf6dbf}</style><switch><g><g id="OGNSZb.tif" class="st0"><image width="447" height="532" id="Layer_0_4_" xlink:href="98F163B56308A981.png" transform="translate(-11 -42) scale(.7811)" display="inline" overflow="visible"/></g><g id="Martelo" class="st0"><path class="st1" d="M106-35.3s-23.7-32-5.6-40.4 25.1 0 25.1 0l7 19.5L106-35.3"/><path d="M267.6 14.9c-1.7 5.8-21.5 8-44.2 8.6-32.2.9-70.2-1.5-70.2-1.5v40.7s-23.5 8-27.7 12.1-33.4-23.7-33.4-23.7l-37.6 69.7C-45.8 44.1-6.8-65.9-6.8-65.9L97.9-39.6 113-65.9l33.4 18.1C206.3-84 241.2-91 241.2-91c2.7 2.2 5.3 4.3 7.6 6.5 44.4 41.5 22.8 86.1 18.8 99.4z" fill="#535597"/><path class="st4" d="M106-35.3L7.7 68.8C2.3 59.4-1.9 50-5.2 40.8L68.2-47l29.7 7.5 1-1.7 7.1 5.9zM146.4-47.8L23.6 91.3c-2.3-2.8-4.5-5.6-6.6-8.4L132-55.6l.5-.6 13.9 8.4z"/><path d="M-1.2-52s-32 91.9 57.1 167.2l2-.8-3.4 6.4C-45.8 44.1-6.8-65.9-6.8-65.9L97.9-39.6 113-65.9l33.4 18.1C206.3-84 241.2-91 241.2-91c1.5 1.2 3 2.4 4.3 3.6L120-28.3-1.2-52z" fill="#a8bbdf"/><path class="st1" d="M160 44.1s61.4 313.4 130 326.5c0 0-11.4 20.4-28.6 20.4s-42.8-7.3-42.8-17.5S114.3 112.6 120 61.6l40-17.5z"/><path d="M289.9 370.6s-5 9-13.4 15C198.7 342.5 152 55.3 152 55.3l9.3-4.6c9.2 44.9 65.9 307.9 128.6 319.9z" fill="#181231"/><path d="M110.6 76.6c7-25.5 56-38 56-38s-60.7 54.8-56 38z" fill="#43468e"/><path class="st8" d="M139.5-59s-39 122.6-32 133.7c7 11.1 47.4-122.6 44.6-126.8-2.9-4.1-12.6-6.9-12.6-6.9z"/><path class="st8" d="M170.6 54.7S106.8 65 103.3 70.6c-3.4 5.6 65.7-6.5 67-8.7s.3-7.2.3-7.2z"/><path class="st1" d="M162.3 55.5c-47-13-70.2-103.4-70.2-103.4S193.5 64.2 162.3 55.5z"/><path d="M267.6 14.9c-1.7 5.8-21.5 8-44.2 8.6 34.4-35.5 30-84.5 25.3-107.9 44.5 41.4 22.9 86 18.9 99.3z" opacity=".4" fill="#2b234f"/></g><g id="VLwKLD.tif" class="st0"><image width="320" height="477" id="Layer_0_8_" xlink:href="98F163B56308A987.png" transform="translate(25 -27.884) scale(.7437)" display="inline" overflow="visible"/></g><path class="st11" d="M142 120v194.9c-4.9-.4-27-1.9-42-1.9-34 0-63-48.9-63-87.5 0-58.1 47-105.2 105-105.5zM142 120v194.9c4.9-.4 27-1.9 42-1.9 34 0 63-48.9 63-87.5 0-58.1-47-105.2-105-105.5z"/><path class="st12" d="M68.4 191.4c9.8 9.8 9.8 25.6 0 35.4s-25.6 9.8-35.4 0c-9.8-9.8-24.6-40.4-14.8-50.2 9.8-9.8 40.4 5 50.2 14.8z"/><path class="st13" d="M218.7 191.4c-9.8 9.8-9.8 25.6 0 35.4 9.8 9.8 25.6 9.8 35.4 0s24.6-40.4 14.8-50.2c-9.7-9.8-40.4 5-50.2 14.8z"/><path d="M220.3 356.6H66.8c-17.9 0-32.4-14.5-32.4-32.4v-18.5c0-28.7 23.2-51.9 51.9-51.9h114.5c28.7 0 51.9 23.2 51.9 51.9v18.5c0 17.9-14.5 32.4-32.4 32.4z" fill="#b6eb94"/><path d="M174.7 309.4v-55.6H86.3c-28.7 0-51.9 23.2-51.9 51.9v18.5c0 17.9 14.5 32.4 32.4 32.4h67.4c35.5-16.1 40.5-47.2 40.5-47.2z" opacity=".15" fill="#367db8"/><path d="M162.9 279.4h-38.7c-40.8 0-73.9-33.1-73.9-73.9v-54.7c0-51.5 41.8-93.3 93.3-93.3s93.3 41.8 93.3 93.3v54.7c-.1 40.8-33.2 73.9-74 73.9z" fill="#eafefc"/><path class="st13" d="M93.9 162.1c-7.3-61.8 52-94.6 69-102.7-6.2-1.3-12.7-2-19.3-2-51.5 0-93.3 41.8-93.3 93.3v54.7c0 39 30.2 71 68.6 73.7-31.7-17.4-18.2-59.1-25-117z"/><path class="st17" d="M186.9 216.6c-2.9 0-5.3-2.4-5.3-5.3v-8.7c0-2.9 2.4-5.3 5.3-5.3s5.3 2.4 5.3 5.3v8.7c-.1 2.9-2.4 5.3-5.3 5.3zM100.3 216.6c-2.9 0-5.3-2.4-5.3-5.3v-8.7c0-2.9 2.4-5.3 5.3-5.3s5.3 2.4 5.3 5.3v8.7c-.1 2.9-2.4 5.3-5.3 5.3z"/><path d="M223.7 211.1c-21.9 25.4-54.9 22.6-54.9 22.6h-50.4s-33 2.8-54.9-22.6c-5.4-6.2-15.6-2.6-15.8 5.7-.4 19.5 1.3 44.2 9.9 59.6 15.9 28.5 26.1 21.9 37.4 16.4.4.5 12.9 24.3 48.5 24.3s48.2-23.7 48.5-24.3c11.3 5.5 21.6 12.1 37.4-16.4 8.6-15.4 10.3-40.2 9.9-59.6 0-8.3-10.3-11.9-15.6-5.7z" fill="#2b234f"/><path class="st17" d="M121 295.2c-8.5-13.6-2-31.7 13.2-36.8 17.9-6.1 28.5-16.8 28.5-16.8v-7.9h-44.3s-33 2.8-54.9-22.6c-5.4-6.2-15.6-2.6-15.8 5.7-.4 19.5 1.3 44.2 9.9 59.6 15.9 28.5 26.1 21.9 37.4 16.4.4.5 12.9 24.3 48.5 24.3-10.5-6.2-17.7-14.1-22.5-21.9z"/><path class="st12" d="M164.6 221.9c-5.3-8.1-13.6-6-18-4-1.9.8-4.1.8-6 0-4.4-2-12.7-4.1-18 4-2.7 4.2-5.8 6.4-8.7 7.5-3.5 1.4-3.9 6.1-.7 8 5.8 3.5 14.2 6.3 24.9 3.5 3.6-.9 7.5-.9 11.1 0 10.7 2.7 19.1-.1 24.9-3.5 3.2-1.9 2.8-6.6-.7-8-3-1.2-6.1-3.4-8.8-7.5z"/><path class="st17" d="M93.9 162s-8.6 27.1-44.8 29.9c-5.8.4-9.8-5.8-6.9-10.9 3.7-6.6 7.4-16.2 8.1-28.5l43.6 9.5zM193.2 162s8.6 27.1 44.8 29.9c5.8.4 9.8-5.8 6.9-10.9-3.7-6.6-7.4-16.2-8.1-28.5l-43.6 9.5z"/><path d="M50.3 152.5s44.7 15.9 93.3 15.9 93.3-15.9 93.3-15.9 0-81.3 8.4-99.8c5.1-11.3 11.2-18.9 17.2-24.1 5.9-5.1 3-14.7-4.7-15.7-37.7-4.8-102.3-9.5-148.3 6.6-10.7 3.7-20.2 10.1-27.8 18.6C65.8 56 42.2 93.2 50.3 152.5z" fill="#5760a6"/><path d="M114.3 98.4C101 56.9 148.4 11.3 149 10.8c-13.9 1.7-27.4 4.5-39.5 8.8-10.7 3.7-20.2 10.1-27.8 18.6-15.9 17.8-39.5 55-31.4 114.3 0 0 44.7 15.9 93.3 15.9 18.1 0 35.7-2.2 50.6-5-22.7-34.5-68.9-30.7-79.9-65z" fill="#4f5296"/><g class="st0"><path d="M90.3-49.1l15.3 64h71.7l15.3-64c1.8-7.6-3.9-14.9-11.7-14.9H102c-7.8 0-13.5 7.3-11.7 14.9z" fill="#5962a6"/><path d="M180.9-64h-22.5c7.8 0 13.6 7.3 11.7 14.9l-15.3 64h22.5l15.3-64c1.8-7.6-3.9-14.9-11.7-14.9z" fill="#4f5196"/><path d="M302.3 274.8c-3.1-27.6-64.9-85.1-94.9-111.5-10.2-9-16-21.9-16-35.4V71.1h4.1c15.5 0 28.1-12.6 28.1-28.1S211 14.9 195.5 14.9h-108C72 14.9 59.4 27.5 59.4 43S72 71.1 87.5 71.1h4.1v56.7c0 13.6-5.8 26.5-16 35.4-30 26.4-91.8 83.9-94.9 111.5C-23.9 315.1 35.5 406 76 406h130.9c40.5 0 99.9-90.9 95.4-131.2z" fill="#e9fefc"/><path class="st24" d="M302.3 274.8c-3.1-27.6-64.9-85.1-94.9-111.5-10.2-9-16-21.9-16-35.4V71.1h4.1c15.5 0 28.1-12.6 28.1-28.1S211 14.9 195.5 14.9H174c15.5 0 28.1 12.6 28.1 28.1S189.5 71.1 174 71.1h-4.1v56.7c0 13.6 5.8 26.5 16 35.4 30 26.4 91.8 83.9 94.9 111.5C285.4 315.1 226 406 185.4 406h21.4c40.6 0 100-90.9 95.5-131.2z"/><path class="st24" d="M141.4 71.1c-3.8 0-6.9 3.1-6.9 6.9 0 3.8 3.1 6.9 6.9 6.9h49.9V71.1h-49.9z"/><path d="M276.9 277.8c-.2-1-3.2-12.3-31.9-43.1-2.7-2.9-5.4-5.7-8.2-8.6 1.2 9 .9 18.2-4.8 24.8-6.8 7.8-18.6 8.7-28.9 8.1-34.8-1.9-68.8-10.9-102.7-19.1-22.1-5.4-53.6-13.8-67.2-.1-25.5 25.7-27 37-27.2 37.9-.5 5.3 1.7 17.4 9.7 34.5 7.6 16.2 18.7 33 30.3 46 16.3 18.2 27.2 22.2 30 22.2h130.9c2.8 0 13.8-4 30-22.2 11.6-13 22.6-29.8 30.3-46 8-17 10.2-29.2 9.7-34.4z" fill="#a559a1"/><path d="M276.9 277.8c-.2-1-3.2-12.3-31.9-43.1-2.7-2.9-5.4-5.7-8.2-8.6 1.1 8.2 1 16.6-3.4 23 16.8 20 18.9 27.8 19 28.6.5 5.3-1.7 17.4-9.7 34.5-7.6 16.2-18.7 33-30.3 46-16.3 18.2-27.2 22.2-30 22.2h24.5c2.8 0 13.8-4 30-22.2 11.6-13 22.6-29.8 30.3-46 8-17 10.2-29.2 9.7-34.4z" opacity=".2" fill="#5760a6"/><path class="st27" d="M203 259.1c10.4.6 22.1-.3 28.9-8.1 5.8-6.6 6.1-15.8 4.8-24.8-7.5-7.5-36.4-35.3-119.8 17.9 28.5 6.8 57 13.4 86.1 15zM110.3 283.4c0 6.9-5.6 12.4-12.4 12.4s-12.5-5.6-12.5-12.4c0-6.9 5.6-12.5 12.5-12.5s12.4 5.6 12.4 12.5z"/><path class="st28" d="M177.3 220c0 4.2-3.4 7.6-7.6 7.6-4.2 0-7.6-3.4-7.6-7.6 0-4.2 3.4-7.6 7.6-7.6 4.2-.1 7.6 3.4 7.6 7.6zM130.7 174.2c0 3.7-3 6.6-6.6 6.6-3.7 0-6.6-3-6.6-6.6 0-3.7 3-6.6 6.6-6.6 3.6 0 6.6 2.9 6.6 6.6z"/></g></g></switch></svg>
