<svg version="1.1" id="Capa_1" xmlns="http://www.w3.org/2000/svg" x="0" y="0" viewBox="0 0 400 474" xml:space="preserve"><style>.st0{fill:#5962a6}.st1{fill:#4f5196}.st2{fill:#e9fefc}.st3{fill:#d2fdf9}.st5{opacity:.2;fill:#5760a6}.st7{fill:#bef29c}.st9{fill:#8e518e}.st10{fill:#bf6dbf}</style><switch><g><path class="st0" d="M114.7 22l14.9 62.2h69.7L214.2 22c1.8-7.4-3.8-14.5-11.4-14.5h-76.6c-7.6.1-13.2 7.2-11.5 14.5z"/><path class="st1" d="M202.8 7.6H181c7.6 0 13.2 7.1 11.4 14.5l-14.9 62.2h21.8L214.2 22c1.7-7.3-3.9-14.4-11.4-14.4z"/><path class="st2" d="M320.8 336.9c-3-26.8-63.1-82.7-92.2-108.4-9.9-8.7-15.6-21.3-15.6-34.5v-55.1h4c15.1 0 27.3-12.2 27.3-27.3S232 84.3 216.9 84.3H112c-15.1 0-27.3 12.2-27.3 27.3s12.2 27.3 27.3 27.3h4V194c0 13.2-5.7 25.7-15.6 34.5C71.3 254.1 11.2 310 8.1 336.9 3.7 376 61.4 464.4 100.8 464.4H228c39.5 0 97.2-88.4 92.8-127.5z"/><path class="st3" d="M320.8 336.9c-3-26.8-63.1-82.7-92.2-108.4-9.9-8.7-15.6-21.3-15.6-34.5v-55.1h4c15.1 0 27.3-12.2 27.3-27.3S232 84.3 216.9 84.3h-20.8c15.1 0 27.3 12.2 27.3 27.3s-12.2 27.3-27.3 27.3h-4V194c0 13.2 5.7 25.7 15.6 34.5 29.1 25.7 89.2 81.5 92.2 108.4 4.4 39.2-53.3 127.6-92.7 127.6H228c39.5-.1 97.2-88.5 92.8-127.6z"/><path class="st3" d="M164.4 138.9a6.7 6.7 0 000 13.4H213v-13.4h-48.6z"/><path d="M296.1 339.8c-.2-1-3.1-12-31-41.9-2.6-2.8-5.3-5.6-8-8.3 1.2 8.8.9 17.7-4.7 24.1-6.6 7.6-18 8.4-28.1 7.9-33.8-1.9-66.9-10.6-99.8-18.6-21.5-5.2-52.1-13.4-65.3-.1-24.8 24.9-26.2 36-26.4 36.9-.5 5.1 1.6 16.9 9.4 33.5 7.4 15.8 18.1 32 29.4 44.7 15.8 17.7 26.4 21.6 29.2 21.6H228c2.8 0 13.4-3.9 29.2-21.6 11.3-12.6 22-28.9 29.4-44.7 7.9-16.6 10-28.4 9.5-33.5z" fill="#ace885"/><path class="st5" d="M296.1 339.8c-.2-1-3.1-12-31-41.9-2.6-2.8-5.3-5.6-8-8.3 1.1 8 1 16.1-3.3 22.4 16.3 19.4 18.3 27.1 18.5 27.8.5 5.1-1.6 16.9-9.4 33.5-7.4 15.8-18.1 32-29.4 44.7-15.8 17.7-26.4 21.6-29.2 21.6H228c2.8 0 13.4-3.9 29.2-21.6 11.3-12.6 22-28.9 29.4-44.7 7.9-16.6 10-28.4 9.5-33.5z"/><path d="M224.3 321.6c10.1.6 21.5-.3 28.1-7.9 5.6-6.4 5.9-15.4 4.7-24.1-7.3-7.3-35.4-34.3-116.5 17.4 27.7 6.7 55.4 13 83.7 14.6z" fill="#a0cc83"/><path class="st7" d="M134.2 345.2c0 6.7-5.4 12.1-12.1 12.1-6.7 0-12.1-5.4-12.1-12.1 0-6.7 5.4-12.1 12.1-12.1 6.7 0 12.1 5.5 12.1 12.1zM199.3 283.6c0 4.1-3.3 7.4-7.4 7.4-4.1 0-7.4-3.3-7.4-7.4 0-4.1 3.3-7.4 7.4-7.4 4.1 0 7.4 3.3 7.4 7.4zM154 239.1c0 3.6-2.9 6.4-6.4 6.4s-6.4-2.9-6.4-6.4c0-3.6 2.9-6.4 6.4-6.4s6.4 2.9 6.4 6.4z"/><path class="st0" d="M249.5 163.8l10.1 42.3H307l10.1-42.3c1.2-5-2.6-9.8-7.8-9.8h-52.1c-5.1 0-8.9 4.8-7.7 9.8z"/><path class="st1" d="M309.4 154h-14.8c5.2 0 9 4.8 7.8 9.8l-10.1 42.3H307l10.1-42.3c1.2-5-2.6-9.8-7.7-9.8z"/><path class="st2" d="M389.6 377.8c-2.1-18.3-42.9-56.3-62.7-73.7-6.7-5.9-10.6-14.5-10.6-23.4v-37.5h2.7c10.3 0 18.6-8.3 18.6-18.6S329.3 206 319 206h-71.3c-10.3 0-18.6 8.3-18.6 18.6s8.3 18.6 18.6 18.6h2.7v37.5c0 9-3.9 17.5-10.6 23.4-19.8 17.4-60.6 55.4-62.7 73.7-3 26.6 36.2 86.7 63 86.7h86.5c26.8.1 66-60 63-86.7z"/><path class="st3" d="M389.6 377.8c-2.1-18.3-42.9-56.3-62.7-73.7-6.7-5.9-10.6-14.5-10.6-23.4v-37.5h2.7c10.3 0 18.6-8.3 18.6-18.6S329.3 206 319 206h-14.2c10.3 0 18.6 8.3 18.6 18.6s-8.3 18.6-18.6 18.6h-2.7v37.5c0 9 3.9 17.5 10.6 23.4 19.8 17.4 60.6 55.4 62.7 73.7 3 26.6-36.2 86.7-63 86.7h14.2c26.8.1 66-60 63-86.7z"/><path class="st3" d="M283.3 243.2c-2.5 0-4.6 2-4.6 4.6 0 2.5 2 4.6 4.6 4.6h33v-9.1h-33z"/><path d="M372.9 379.8c-.1-.6-2.1-8.2-21.1-28.5l-5.4-5.7c.8 6 .6 12-3.2 16.4-4.5 5.2-12.3 5.7-19.1 5.4-23-1.3-45.5-7.2-67.9-12.6-14.6-3.5-35.4-9.1-44.4-.1-16.9 17-17.8 24.5-17.9 25.1-.4 3.5 1.1 11.5 6.4 22.8 5 10.7 12.3 21.8 20 30.4 10.8 12.1 18 14.7 19.9 14.7h86.5c1.9 0 9.1-2.6 19.9-14.7 7.7-8.6 15-19.7 20-30.4 5.2-11.3 6.6-19.3 6.3-22.8z" fill="#a559a1"/><path class="st5" d="M372.9 379.8c-.1-.6-2.1-8.2-21.1-28.5l-5.4-5.7c.7 5.4.6 11-2.3 15.2 11.1 13.2 12.5 18.4 12.6 18.9.4 3.5-1.1 11.5-6.4 22.8-5 10.7-12.3 21.8-20 30.4-10.8 12.1-18 14.7-19.9 14.7h16.2c1.9 0 9.1-2.6 19.9-14.7 7.7-8.6 15-19.7 20-30.4 5.3-11.2 6.7-19.2 6.4-22.7z"/><path class="st9" d="M324 367.5c6.9.4 14.6-.2 19.1-5.4 3.8-4.4 4-10.5 3.2-16.4-5-5-24.1-23.3-79.2 11.8 18.8 4.6 37.7 8.9 56.9 10zM262.8 383.6c0 4.5-3.7 8.2-8.2 8.2s-8.2-3.7-8.2-8.2c0-4.5 3.7-8.2 8.2-8.2s8.2 3.6 8.2 8.2z"/><path class="st10" d="M307 341.6c0 2.8-2.3 5-5 5s-5-2.3-5-5 2.3-5 5-5 5 2.3 5 5zM276.2 311.4c0 2.4-2 4.4-4.4 4.4s-4.4-2-4.4-4.4c0-2.4 2-4.4 4.4-4.4s4.4 2 4.4 4.4z"/></g></switch></svg>
